# xmcd
#
# Track frame offsets:
#	150
#	20620
#	26352
#	48479
#	68505
#	94687
#	119155
#	138150
#	163308
#	186396
#
# Disc length: 2812 seconds
#
# Revision: 0
# Processed by: cddbd v1.5.2PL0 Copyright (c) Steve Scherf et al.
# Submitted via: EasyCDDAExtractor 2010.4.0.0
#
DISCID=890afa0a
DTITLE=박정현 - Cover Me Vol.1
DYEAR=2010
DGENRE=R&B
TTITLE0=You Mean Everything To Me
TTITLE1=Everything Everything! (Reprise)
TTITLE2=편지할께요
TTITLE3=P.S. I Love You
TTITLE4=夢中人
TTITLE5=나의 하루 (Live)
TTITLE6=Vincent
TTITLE7=바람에 지는 꽃 (Live)
TTITLE8=그 바보
TTITLE9=The Gold Within (Cosmorama version)
EXTD=
EXTT0=
EXTT1=
EXTT2=
EXTT3=
EXTT4=
EXTT5=
EXTT6=
EXTT7=
EXTT8=
EXTT9=
PLAYORDER=
